# 3ds Max Wavefront OBJ Exporter v0.97b - (c)2007 guruware
# File Created: 23.06.2014 13:16:24

mtllib Kitchen_board.mtl

#
# object Kitchen_board
#

v  11.9383 1.1905 -21.5632
v  9.1571 1.1905 -17.7375
v  9.2823 1.1905 -16.5452
v  29.7724 1.1905 -16.7532
v  29.7742 1.1905 -22.2942
v  8.8475 1.1905 -28.2027
v  9.4949 1.1905 -26.1255
v  11.9559 1.1905 -25.0010
v  9.1582 1.1905 -29.1559
v  6.3770 1.1905 -25.3071
v  6.0413 1.1905 -23.3418
v  8.3505 1.1905 -23.3656
v  8.3518 1.1905 -25.3879
v  6.2931 1.1905 -21.7828
v  8.3620 1.1905 -21.1187
v  29.7742 1.1905 -24.2636
v  7.0102 1.1905 -26.3557
v  8.7167 1.1905 -26.1130
v  9.7960 1.1905 -25.3589
v  9.8802 1.1905 -21.0795
v  6.8940 1.1905 -20.4899
v  8.7717 1.1905 -20.1252
v  7.8426 1.1905 -27.2527
v  8.8941 0.9245 -30.0252
v  8.8941 0.6015 -30.0252
v  8.8941 0.6015 -29.1881
v  8.8941 0.9245 -29.1881
v  5.7753 0.9245 -23.3391
v  5.7753 0.6015 -23.3391
v  6.0398 0.6015 -21.8641
v  6.0398 0.9245 -21.8641
v  8.5860 0.6015 -28.2512
v  8.5860 0.9245 -28.2512
v  30.0400 0.9245 -24.2525
v  30.0400 0.6015 -24.2525
v  30.0380 0.6015 -30.0252
v  30.0380 0.9245 -30.0252
v  8.8941 0.9245 -17.7773
v  8.8941 0.6015 -17.7773
v  9.0419 0.6015 -16.2713
v  9.0419 0.9245 -16.2713
v  8.4712 0.9245 -18.5479
v  8.4712 0.6015 -18.5479
v  30.0380 0.9245 -16.4897
v  30.0380 0.6015 -16.4897
v  30.0400 0.6015 -22.3052
v  30.0400 0.9245 -22.3052
v  7.5832 0.9245 -27.3115
v  7.5832 0.6015 -27.3115
v  6.7534 0.6015 -26.4249
v  6.7534 0.9245 -26.4249
v  7.3829 0.9245 -19.5446
v  7.3829 0.6015 -19.5446
v  6.6284 0.6015 -20.5049
v  6.6284 0.9245 -20.5049
v  6.1112 0.9245 -25.2963
v  6.1112 0.6015 -25.2963
v  8.6165 0.9245 -23.3683
v  8.6165 0.6015 -23.3683
v  8.6176 0.6015 -25.3988
v  8.6176 0.9246 -25.3988
v  8.6152 0.9245 -21.0374
v  8.6152 0.6015 -21.0374
v  8.8802 0.9245 -20.3778
v  8.8802 0.6015 -20.3778
v  9.2817 0.9245 -20.3634
v  9.2817 0.6015 -20.3634
v  9.5350 0.9245 -21.0374
v  9.5350 0.6015 -21.0374
v  9.5336 0.9245 -25.4024
v  9.5336 0.6015 -25.4024
v  9.3391 0.9245 -25.8557
v  9.3391 0.6015 -25.8557
v  8.8658 0.9245 -25.8557
v  8.8658 0.6015 -25.8557
v  9.1601 1.1905 -29.7592
v  8.7364 1.1905 -18.5692
v  7.6482 1.1905 -19.5634
v  29.7724 1.1905 -29.7592
v  9.5107 1.1905 -20.1345
v  11.9383 0.0125 -21.5632
v  29.7742 0.0125 -22.2942
v  29.7724 0.0125 -16.7532
v  9.2823 0.0125 -16.5452
v  9.1571 0.0125 -17.7375
v  8.8475 0.0125 -28.2027
v  9.1582 0.0125 -29.1559
v  11.9559 0.0125 -25.0010
v  9.4949 0.0125 -26.1255
v  6.3770 0.0125 -25.3071
v  8.3518 0.0124 -25.3879
v  8.3505 0.0125 -23.3656
v  6.0413 0.0125 -23.3418
v  8.3620 0.0125 -21.1187
v  6.2931 0.0125 -21.7828
v  29.7742 0.0125 -24.2636
v  7.0102 0.0125 -26.3557
v  8.7167 0.0125 -26.1130
v  9.8802 0.0125 -21.0795
v  9.7960 0.0125 -25.3589
v  9.5107 0.0125 -20.1345
v  8.7717 0.0125 -20.1252
v  6.8940 0.0125 -20.4899
v  7.8426 0.0125 -27.2527
v  8.8941 0.2785 -30.0252
v  8.8941 0.2785 -29.1881
v  5.7753 0.2785 -23.3391
v  6.0398 0.2785 -21.8641
v  8.5860 0.2785 -28.2512
v  30.0400 0.2785 -24.2525
v  30.0380 0.2785 -30.0252
v  8.8941 0.2785 -17.7773
v  9.0419 0.2785 -16.2713
v  8.4712 0.2785 -18.5479
v  30.0380 0.2785 -16.4897
v  30.0400 0.2785 -22.3052
v  7.5832 0.2785 -27.3115
v  6.7534 0.2785 -26.4249
v  7.3829 0.2785 -19.5446
v  6.6284 0.2785 -20.5049
v  6.1112 0.2785 -25.2963
v  8.6165 0.2785 -23.3683
v  8.6176 0.2784 -25.3988
v  8.6152 0.2785 -21.0374
v  8.8802 0.2785 -20.3778
v  9.2817 0.2785 -20.3634
v  9.5350 0.2785 -21.0374
v  9.5336 0.2785 -25.4024
v  9.3391 0.2785 -25.8557
v  8.8658 0.2785 -25.8557
v  9.1601 0.0125 -29.7592
v  8.7364 0.0125 -18.5692
v  7.6482 0.0125 -19.5634
v  29.7724 0.0125 -29.7592
# 134 vertices

vn 0.0000 1.0000 -0.0000
vn -0.3492 0.9327 0.0899
vn -0.2859 0.9042 0.3173
vn 0.3025 0.9050 0.2991
vn 0.3829 0.9238 0.0001
vn -0.2942 0.9401 -0.1721
vn -0.1198 0.9751 0.1865
vn -0.3449 0.9370 -0.0548
vn -0.4098 0.8961 -0.1702
vn -0.4176 0.9086 0.0010
vn 0.3821 0.9241 -0.0009
vn 0.3289 0.9416 0.0722
vn -0.4345 0.8890 0.1445
vn 0.3601 0.9312 -0.0570
vn 0.3829 0.9238 -0.0001
vn -0.3368 0.9053 -0.2588
vn 0.1254 0.9709 0.2042
vn -0.3494 0.9352 0.0570
vn -0.2893 0.9563 -0.0430
vn -0.3817 0.8891 0.2527
vn 0.1274 0.9701 -0.2066
vn -0.3014 0.9037 -0.3043
vn -0.6507 0.3914 -0.6507
vn -0.7071 0.0000 -0.7071
vn -0.9874 0.0000 -0.1582
vn -0.9059 0.3971 -0.1468
vn -0.9296 0.3685 0.0038
vn -1.0000 0.0000 0.0037
vn -0.9574 0.0000 0.2889
vn -0.9053 0.3376 0.2577
vn -0.8431 0.0000 -0.5378
vn -0.7683 0.3806 -0.5146
vn 0.9240 0.3825 -0.0002
vn 1.0000 0.0000 -0.0002
vn 0.7070 0.0000 -0.7072
vn 0.6506 0.3913 -0.6509
vn -0.8819 0.3757 0.2846
vn -0.9554 0.0000 0.2954
vn -0.6678 0.0000 0.7443
vn -0.6145 0.3882 0.6868
vn -0.7260 0.3443 0.5953
vn -0.7866 0.0000 0.6175
vn 0.6541 0.3908 0.6477
vn 0.7107 0.0000 0.7035
vn 1.0000 0.0000 0.0002
vn 0.9240 0.3825 0.0002
vn -0.6672 0.3425 -0.6615
vn -0.7073 0.0000 -0.7069
vn -0.8052 0.0000 -0.5930
vn -0.7560 0.3586 -0.5476
vn -0.6985 0.3202 0.6399
vn -0.7333 0.0000 0.6799
vn -0.8591 0.0000 0.5118
vn -0.8145 0.3301 0.4771
vn -0.8821 0.3562 -0.3082
vn -0.9415 0.0000 -0.3369
vn 0.9241 0.3821 -0.0005
vn 1.0000 0.0000 0.0005
vn 0.9691 0.0000 0.2466
vn 0.8877 0.3917 0.2420
vn 0.9122 0.3584 -0.1988
vn 0.9819 0.0000 -0.1895
vn 0.5390 0.4324 -0.7228
vn 0.5747 0.0000 -0.8183
vn -0.4450 0.4933 -0.7475
vn -0.5545 0.0000 -0.8322
vn -0.8772 0.4499 -0.1677
vn -0.9839 -0.0000 -0.1786
vn -0.9019 0.3856 0.1947
vn -0.9795 -0.0000 0.2015
vn -0.4873 0.4847 0.7264
vn -0.5503 0.0000 0.8350
vn 0.4608 0.4636 0.7567
vn 0.5111 0.0000 0.8595
vn -0.3001 0.9054 -0.3004
vn -0.3094 0.9246 0.2224
vn -0.3279 0.8875 0.3237
vn 0.3004 0.9053 -0.3002
vn -0.1273 0.9766 -0.1736
vn 0.0000 -1.0000 -0.0000
vn 0.3829 -0.9238 0.0001
vn 0.3025 -0.9050 0.2991
vn -0.2859 -0.9042 0.3173
vn -0.3492 -0.9327 0.0899
vn -0.2942 -0.9401 -0.1721
vn -0.3449 -0.9370 -0.0548
vn -0.1198 -0.9751 0.1865
vn -0.4098 -0.8961 -0.1702
vn 0.3289 -0.9416 0.0722
vn 0.3821 -0.9241 -0.0009
vn -0.4176 -0.9086 0.0010
vn 0.3601 -0.9312 -0.0570
vn -0.4345 -0.8890 0.1445
vn 0.3829 -0.9238 -0.0001
vn -0.3368 -0.9053 -0.2588
vn 0.1254 -0.9709 0.2042
vn -0.2893 -0.9563 -0.0430
vn -0.3494 -0.9352 0.0570
vn -0.1273 -0.9766 -0.1736
vn 0.1274 -0.9701 -0.2066
vn -0.3817 -0.8891 0.2527
vn -0.3014 -0.9037 -0.3043
vn -0.6507 -0.3914 -0.6507
vn -0.9059 -0.3971 -0.1468
vn -0.9296 -0.3685 0.0038
vn -0.9053 -0.3376 0.2577
vn -0.7683 -0.3806 -0.5146
vn 0.9240 -0.3825 -0.0002
vn 0.6506 -0.3913 -0.6509
vn -0.8819 -0.3757 0.2846
vn -0.6145 -0.3882 0.6868
vn -0.7260 -0.3443 0.5953
vn 0.6541 -0.3908 0.6477
vn 0.9240 -0.3825 0.0002
vn -0.6672 -0.3425 -0.6615
vn -0.7560 -0.3586 -0.5476
vn -0.6985 -0.3202 0.6399
vn -0.8145 -0.3301 0.4771
vn -0.8821 -0.3562 -0.3082
vn 0.9241 -0.3821 -0.0005
vn 0.8877 -0.3917 0.2420
vn 0.9122 -0.3584 -0.1988
vn 0.5390 -0.4324 -0.7228
vn -0.4450 -0.4933 -0.7475
vn -0.8772 -0.4499 -0.1677
vn -0.9019 -0.3856 0.1947
vn -0.4873 -0.4847 0.7264
vn 0.4608 -0.4636 0.7567
vn -0.3001 -0.9054 -0.3004
vn -0.3094 -0.9246 0.2224
vn -0.3279 -0.8875 0.3237
vn 0.3004 -0.9053 -0.3002
# 132 vertex normals

vt 0.4100 0.7217 0.0000
vt 0.1735 0.8243 0.0000
vt 0.0998 0.8197 0.0000
vt 0.1126 0.0634 0.0000
vt 0.4552 0.0633 0.0000
vt 0.8205 0.8358 0.0000
vt 0.6921 0.8119 0.0000
vt 0.6226 0.7210 0.0000
vt 0.8795 0.8243 0.0000
vt 0.6415 0.9270 0.0000
vt 0.5200 0.9394 0.0000
vt 0.5215 0.8541 0.0000
vt 0.6465 0.8541 0.0000
vt 0.4236 0.9301 0.0000
vt 0.3825 0.8537 0.0000
vt 0.5770 0.0633 0.0000
vt 0.7063 0.9036 0.0000
vt 0.6913 0.8406 0.0000
vt 0.6447 0.8008 0.0000
vt 0.3801 0.7977 0.0000
vt 0.3437 0.9079 0.0000
vt 0.3211 0.8386 0.0000
vt 0.7618 0.8729 0.0000
vt 0.9332 0.8341 0.0000
vt 0.9426 0.8393 0.0000
vt 0.8895 0.8393 0.0000
vt 0.8814 0.8341 0.0000
vt 0.5198 0.9492 0.0000
vt 0.5184 0.9569 0.0000
vt 0.4248 0.9469 0.0000
vt 0.4286 0.9394 0.0000
vt 0.8301 0.8510 0.0000
vt 0.8235 0.8454 0.0000
vt 0.5763 0.0535 0.0000
vt 0.5764 0.0424 0.0000
vt 0.9426 0.0424 0.0000
vt 0.9332 0.0536 0.0000
vt 0.1760 0.8341 0.0000
vt 0.1655 0.8393 0.0000
vt 0.0700 0.8338 0.0000
vt 0.0828 0.8286 0.0000
vt 0.2236 0.8497 0.0000
vt 0.2144 0.8553 0.0000
vt 0.0963 0.0536 0.0000
vt 0.0838 0.0424 0.0000
vt 0.4528 0.0424 0.0000
vt 0.4559 0.0535 0.0000
vt 0.7654 0.8824 0.0000
vt 0.7705 0.8887 0.0000
vt 0.7142 0.9200 0.0000
vt 0.7106 0.9131 0.0000
vt 0.2852 0.8898 0.0000
vt 0.2777 0.8963 0.0000
vt 0.3386 0.9247 0.0000
vt 0.3446 0.9177 0.0000
vt 0.6408 0.9368 0.0000
vt 0.6426 0.9442 0.0000
vt 0.5216 0.8443 0.0000
vt 0.5218 0.8378 0.0000
vt 0.6312 0.8377 0.0000
vt 0.6472 0.8443 0.0000
vt 0.3775 0.8443 0.0000
vt 0.3963 0.8378 0.0000
vt 0.3367 0.8346 0.0000
vt 0.3608 0.8311 0.0000
vt 0.3358 0.8197 0.0000
vt 0.3600 0.8211 0.0000
vt 0.3775 0.8104 0.0000
vt 0.3963 0.8147 0.0000
vt 0.6474 0.8104 0.0000
vt 0.6314 0.8147 0.0000
vt 0.6754 0.8176 0.0000
vt 0.6558 0.8196 0.0000
vt 0.6754 0.8351 0.0000
vt 0.6558 0.8315 0.0000
vt 0.9168 0.8242 0.0000
vt 0.2249 0.8399 0.0000
vt 0.2864 0.8800 0.0000
vt 0.9168 0.0634 0.0000
vt 0.3217 0.8113 0.0000
# 80 texture coords

g Kitchen_board
usemtl Material__51
s 1
f 1/1/1 2/2/2 3/3/3 4/4/4 5/5/5 
f 6/6/6 7/7/7 8/8/1 9/9/8 
f 10/10/9 11/11/10 12/12/11 13/13/12 
f 12/12/11 11/11/10 14/14/13 15/15/14 
f 1/1/1 5/5/5 16/16/15 8/8/1 
f 17/17/16 10/10/9 13/13/12 18/18/17 
f 8/8/1 19/19/18 20/20/19 1/1/1 
f 15/15/14 14/14/13 21/21/20 22/22/21 
f 18/18/17 23/23/22 17/17/16 
f 24/24/23 25/25/24 26/26/25 27/27/26 
f 28/28/27 29/29/28 30/30/29 31/31/30 
f 27/27/26 26/26/25 32/32/31 33/33/32 
f 34/34/33 35/35/34 36/36/35 37/37/36 
f 38/38/37 39/39/38 40/40/39 41/41/40 
f 42/42/41 43/43/42 39/39/38 38/38/37 
f 44/44/43 45/45/44 46/46/45 47/47/46 
f 48/48/47 49/49/48 50/50/49 51/51/50 
f 52/52/51 53/53/52 43/43/42 42/42/41 
f 33/33/32 32/32/31 49/49/48 48/48/47 
f 31/31/30 30/30/29 54/54/53 55/55/54 
f 47/47/46 46/46/45 35/35/34 34/34/33 
f 56/56/55 57/57/56 29/29/28 28/28/27 
f 58/58/57 59/59/58 60/60/59 61/61/60 
f 62/62/61 63/63/62 59/59/58 58/58/57 
f 64/64/63 65/65/64 63/63/62 62/62/61 
f 66/66/65 67/67/66 65/65/64 64/64/63 
f 68/68/67 69/69/68 67/67/66 66/66/65 
f 70/70/69 71/71/70 69/69/68 68/68/67 
f 72/72/71 73/73/72 71/71/70 70/70/69 
f 74/74/73 75/75/74 73/73/72 72/72/71 
f 61/61/60 60/60/59 75/75/74 74/74/73 
f 24/24/23 37/37/36 36/36/35 25/25/24 
f 41/41/40 40/40/39 45/45/44 44/44/43 
f 55/55/54 54/54/53 53/53/52 52/52/51 
f 51/51/50 50/50/49 57/57/56 56/56/55 
f 76/76/75 24/24/23 27/27/26 9/9/8 
f 11/11/10 28/28/27 31/31/30 14/14/13 
f 9/9/8 27/27/26 33/33/32 6/6/6 
f 2/2/2 38/38/37 41/41/40 3/3/3 
f 77/77/76 42/42/41 38/38/37 2/2/2 
f 4/4/4 44/44/43 47/47/46 5/5/5 
f 23/23/22 48/48/47 51/51/50 17/17/16 
f 78/78/77 52/52/51 42/42/41 77/77/76 
f 6/6/6 33/33/32 48/48/47 23/23/22 
f 16/16/15 34/34/33 37/37/36 79/79/78 
f 14/14/13 31/31/30 55/55/54 21/21/20 
f 5/5/5 47/47/46 34/34/33 16/16/15 
f 10/10/9 56/56/55 28/28/27 11/11/10 
f 12/12/11 58/58/57 61/61/60 13/13/12 
f 15/15/14 62/62/61 58/58/57 12/12/11 
f 22/22/21 64/64/63 62/62/61 15/15/14 
f 80/80/79 66/66/65 64/64/63 22/22/21 
f 20/20/19 68/68/67 66/66/65 80/80/79 
f 19/19/18 70/70/69 68/68/67 20/20/19 
f 7/7/7 72/72/71 70/70/69 19/19/18 
f 18/18/17 74/74/73 72/72/71 7/7/7 
f 13/13/12 61/61/60 74/74/73 18/18/17 
f 79/79/78 37/37/36 24/24/23 76/76/75 
f 3/3/3 41/41/40 44/44/43 4/4/4 
f 21/21/20 55/55/54 52/52/51 78/78/77 
f 17/17/16 51/51/50 56/56/55 10/10/9 
f 81/1/80 82/5/81 83/4/82 84/3/83 85/2/84 
f 86/6/85 87/9/86 88/8/80 89/7/87 
f 90/10/88 91/13/89 92/12/90 93/11/91 
f 92/12/90 94/15/92 95/14/93 93/11/91 
f 81/1/80 88/8/80 96/16/94 82/5/81 
f 97/17/95 98/18/96 91/13/89 90/10/88 
f 88/8/80 81/1/80 99/20/97 100/19/98 
f 81/1/80 101/80/99 99/20/97 
f 94/15/92 102/22/100 103/21/101 95/14/93 
f 104/23/102 86/6/85 89/7/87 98/18/96 
f 105/24/103 106/27/104 26/26/25 25/25/24 
f 107/28/105 108/31/106 30/30/29 29/29/28 
f 106/27/104 109/33/107 32/32/31 26/26/25 
f 36/36/35 35/35/34 110/34/108 111/37/109 
f 112/38/110 113/41/111 40/40/39 39/39/38 
f 114/42/112 112/38/110 39/39/38 43/43/42 
f 46/46/45 45/45/44 115/44/113 116/47/114 
f 117/48/115 118/51/116 50/50/49 49/49/48 
f 119/52/117 114/42/112 43/43/42 53/53/52 
f 109/33/107 117/48/115 49/49/48 32/32/31 
f 108/31/106 120/55/118 54/54/53 30/30/29 
f 116/47/114 110/34/108 35/35/34 46/46/45 
f 121/56/119 107/28/105 29/29/28 57/57/56 
f 122/58/120 123/61/121 60/60/59 59/59/58 
f 124/62/122 122/58/120 59/59/58 63/63/62 
f 125/64/123 124/62/122 63/63/62 65/65/64 
f 126/66/124 125/64/123 65/65/64 67/67/66 
f 127/68/125 126/66/124 67/67/66 69/69/68 
f 128/70/126 127/68/125 69/69/68 71/71/70 
f 129/72/127 128/70/126 71/71/70 73/73/72 
f 130/74/128 129/72/127 73/73/72 75/75/74 
f 123/61/121 130/74/128 75/75/74 60/60/59 
f 105/24/103 25/25/24 36/36/35 111/37/109 
f 45/45/44 40/40/39 113/41/111 115/44/113 
f 120/55/118 119/52/117 53/53/52 54/54/53 
f 118/51/116 121/56/119 57/57/56 50/50/49 
f 131/76/129 87/9/86 106/27/104 105/24/103 
f 93/11/91 95/14/93 108/31/106 107/28/105 
f 87/9/86 86/6/85 109/33/107 106/27/104 
f 85/2/84 84/3/83 113/41/111 112/38/110 
f 132/77/130 85/2/84 112/38/110 114/42/112 
f 116/47/114 115/44/113 83/4/82 82/5/81 
f 104/23/102 97/17/95 118/51/116 117/48/115 
f 133/78/131 132/77/130 114/42/112 119/52/117 
f 86/6/85 104/23/102 117/48/115 109/33/107 
f 96/16/94 134/79/132 111/37/109 110/34/108 
f 95/14/93 103/21/101 120/55/118 108/31/106 
f 82/5/81 96/16/94 110/34/108 116/47/114 
f 90/10/88 93/11/91 107/28/105 121/56/119 
f 92/12/90 91/13/89 123/61/121 122/58/120 
f 94/15/92 92/12/90 122/58/120 124/62/122 
f 102/22/100 94/15/92 124/62/122 125/64/123 
f 101/80/99 102/22/100 125/64/123 126/66/124 
f 99/20/97 101/80/99 126/66/124 127/68/125 
f 100/19/98 99/20/97 127/68/125 128/70/126 
f 89/7/87 100/19/98 128/70/126 129/72/127 
f 98/18/96 89/7/87 129/72/127 130/74/128 
f 91/13/89 98/18/96 130/74/128 123/61/121 
f 105/24/103 111/37/109 134/79/132 131/76/129 
f 115/44/113 113/41/111 84/3/83 83/4/82 
f 103/21/101 133/78/131 119/52/117 120/55/118 
f 97/17/95 90/10/88 121/56/119 118/51/116 
f 22/22/21 21/21/20 78/78/77 
f 7/7/7 6/6/6 23/23/22 18/18/17 
f 133/78/131 103/21/101 102/22/100 
f 98/18/96 97/17/95 104/23/102 
f 7/7/7 19/19/18 8/8/1 
f 1/1/1 20/20/19 80/80/79 
f 80/80/79 22/22/21 78/78/77 77/77/76 
f 79/79/78 76/76/75 9/9/8 8/8/1 16/16/15 
f 1/1/1 80/80/79 77/77/76 2/2/2 
f 132/77/130 101/80/99 81/1/80 85/2/84 
f 133/78/131 102/22/100 101/80/99 132/77/130 
f 134/79/132 96/16/94 88/8/80 87/9/86 131/76/129 
f 88/8/80 100/19/98 89/7/87 
# 128 polygons - 8 triangles

